<?xml version="1.0" encoding="utf-8"?>
<!-- Generator: Adobe Illustrator 25.3.1, SVG Export Plug-In . SVG Version: 6.00 Build 0)  -->
<svg version="1.1" id="Layer_1" xmlns="http://www.w3.org/2000/svg" xmlns:xlink="http://www.w3.org/1999/xlink" x="0px" y="0px"
	 viewBox="0 0 512 512" style="enable-background:new 0 0 512 512;" xml:space="preserve">
<style type="text/css">
	.st0{fill:#84D5F7;}
	.st1{fill:#438CCB;}
	.st2{fill:#55A6D7;}
	.st3{fill:#62BFEC;}
	.st4{fill:#002C3B;}
</style>
<polygon class="st0" points="337.49,324.82 295.16,251.5 292.92,247.61 286.99,237.35 281.07,247.61 278.83,251.5 203.19,382.51 
	202.44,383.81 200.47,387.23 202.44,390.65 203.18,391.94 245.52,465.27 247.76,469.16 253.68,479.41 259.61,469.16 261.85,465.27 
	337.49,334.25 338.24,332.95 340.22,329.54 338.24,326.12 "/>
<polygon class="st1" points="271.34,242.94 277.26,232.69 265.42,232.69 260.93,232.69 109.17,232.69 104.68,232.69 92.84,232.69 
	98.76,242.94 101,246.83 176.88,378.26 179.13,382.15 185.05,392.41 190.97,382.15 193.21,378.26 269.1,246.83 "/>
<polygon class="st0" points="110.23,221.93 186.12,221.93 190.61,221.93 202.45,221.93 196.53,211.67 194.28,207.78 156.34,142.07 
	154.1,138.18 148.18,127.92 142.25,138.18 140.01,142.07 102.07,207.78 99.83,211.67 93.9,221.93 105.75,221.93 "/>
<polygon class="st2" points="178.58,159.07 212.15,217.21 212.9,218.51 214.88,221.93 218.82,221.93 220.32,221.93 255.34,221.93 
	256.84,221.93 260.79,221.93 262.76,218.51 263.51,217.21 305.41,144.64 306.16,143.34 308.13,139.92 306.16,136.51 305.41,135.21 
	254.33,46.73 252.08,42.84 246.16,32.59 240.24,42.85 237.99,46.73 178.58,149.64 177.83,150.93 175.86,154.35 177.83,157.77 "/>
<polygon class="st2" points="407.32,232.69 402.83,232.69 313.06,232.69 308.57,232.69 296.72,232.69 302.65,242.94 304.89,246.83 
	349.78,324.58 352.02,328.47 357.95,338.72 363.87,328.47 366.11,324.58 411,246.83 413.24,242.94 419.16,232.69 "/>
<polygon class="st3" points="279.13,211.67 273.21,221.93 285.06,221.93 289.54,221.93 401.76,221.93 406.25,221.93 418.1,221.93 
	412.17,211.67 409.93,207.78 353.82,110.6 351.58,106.71 345.65,96.45 339.73,106.71 337.49,110.6 281.38,207.78 "/>
<path class="st4" d="M345.65,64.87l-31.31,54.23L246.16,1l-72.7,125.93l0,0l-3.81,6.59l-21.47-37.19l-76.15,131.9l113.02,195.76
	l9.2-15.94L253.68,511l92.74-160.64l11.52,19.95l82.03-142.08L345.65,64.87z M406.64,244.31l-48.7,84.34l-52.5-90.94h105
	L406.64,244.31L406.64,244.31z M102.62,216.89l3.81-6.59l0,0l41.75-72.31l45.56,78.9H102.62z M257.88,216.89h-40.1l-36.11-62.54
	l64.49-111.7l56.16,97.27L257.88,216.89z M268.54,237.72l-83.5,144.62l-83.5-144.62H268.54z M286.99,247.42l47.41,82.12
	l-80.72,139.81l-47.41-82.12L286.99,247.42z M341.85,113.11l3.81-6.59l63.72,110.37H281.93L341.85,113.11L341.85,113.11z"/>
</svg>
