<svg width="146" height="50" viewBox="0 0 146 50" fill="none" xmlns="http://www.w3.org/2000/svg">
    <path d="M25.199 31.3675L21.1804 24.4071L20.9674 24.0383L20.4056 23.0646L19.8433 24.0383L19.6303 24.4071L12.4501 36.8436L12.3788 36.9667L12.1917 37.291L12.3792 37.6157L12.4501 37.7383L16.4687 44.6987L16.6813 45.068L17.2435 46.0413L17.8058 45.068L18.0188 44.6987L25.199 32.2622L25.2699 32.1392L25.4574 31.8149L25.2699 31.4901L25.199 31.3675Z" fill="#84D5F7" />
    <path d="M18.9195 23.595L19.4817 22.6217H18.3576H17.9316H3.52535H3.09932H1.97522L2.5375 23.595L2.75051 23.9643L9.95341 36.4402L10.1664 36.809L10.7282 37.7828L11.2905 36.809L11.5035 36.4402L18.7064 23.9643L18.9195 23.595Z" fill="#438CCB" />
    <path d="M3.62712 21.6002H10.83H11.256H12.3801L11.8179 20.6265L11.6049 20.2577L8.00363 14.0194L7.79062 13.6506L7.22834 12.6769L6.66652 13.6506L6.45351 14.0194L2.85183 20.2577L2.63882 20.6265L2.07654 21.6002H3.2011H3.62712Z" fill="#84D5F7" />
    <path d="M10.1146 15.6332L13.3012 21.1525L13.3725 21.2756L13.5596 21.6003H13.9343H14.0765H17.4011H17.5428H17.9175L18.1051 21.2756L18.1759 21.1529L22.1532 14.2639L22.2245 14.1408L22.4117 13.8165L22.2245 13.4918L22.1532 13.3687L17.3044 4.97037L17.0913 4.60112L16.5291 3.62781L15.9672 4.60112L15.7542 4.97037L10.1146 14.738L10.0433 14.8611L9.8562 15.1859L10.0433 15.5102L10.1146 15.6332Z" fill="#55A6D7" />
    <path d="M31.8273 22.6217H31.4013H22.8794H22.4534H21.3289L21.8911 23.595L22.1041 23.9643L26.3653 31.3443L26.5783 31.7131L27.1401 32.6869L27.7024 31.7131L27.9154 31.3443L32.1761 23.9643L32.3891 23.595L32.9514 22.6217H31.8273Z" fill="#55A6D7" />
    <path d="M19.6592 20.6265L19.0974 21.6002H20.2215H20.6475H31.2995H31.7255H32.8501L32.2878 20.6265L32.0748 20.2577L26.7486 11.0323L26.5356 10.6635L25.9738 9.69019L25.4115 10.6635L25.1985 11.0323L19.8722 20.2577L19.6592 20.6265Z" fill="#62BFEC" />
    <path d="M25.9734 6.69202L23.0017 11.8397L16.5291 0.629578L9.62779 12.5832L9.26444 13.2091L7.22606 9.67919L0 22.2006L10.7283 40.7812L11.6017 39.2683L17.2435 49.0401L26.0474 33.7923L27.1407 35.6857L34.9267 22.2006L25.9734 6.69202ZM31.7624 23.7239L27.1402 31.7316L22.1564 23.1021H32.124L31.7606 23.728L31.7624 23.7239ZM2.90405 21.1228L3.2674 20.4969L7.23015 13.6329L11.5544 21.1228H2.90405ZM17.6419 21.1228H13.8353L10.4081 15.1862L16.5291 4.5837L21.8603 13.8168L17.6419 21.1228ZM18.6542 23.0999L10.7283 36.8276L2.80277 23.0999H18.6542ZM20.4056 24.0205L24.9056 31.8152L17.2435 45.086L12.7435 37.2917L20.4056 24.0205ZM25.6123 11.2716L25.9757 10.6457L32.0227 21.1228H19.9246L25.6123 11.2716V11.2716Z" fill="#002C3B" />
    <path d="M44.1502 35.2243C43.7229 35.2243 43.381 35.1282 43.1246 34.9359C42.8682 34.7436 42.7187 34.4872 42.676 34.1667C42.6332 33.8462 42.6973 33.483 42.8682 33.0771L51.5535 13.5914C51.7671 13.0786 52.0342 12.7154 52.3547 12.5017C52.6965 12.2881 53.0704 12.1813 53.4764 12.1813C53.861 12.1813 54.2135 12.2881 54.534 12.5017C54.8759 12.7154 55.1536 13.0786 55.3673 13.5914L64.0525 33.0771C64.2448 33.483 64.3196 33.8569 64.2768 34.1988C64.2341 34.5193 64.0952 34.7757 63.8602 34.968C63.6252 35.1389 63.294 35.2243 62.8667 35.2243C62.3967 35.2243 62.0227 35.1068 61.745 34.8718C61.4672 34.6368 61.2215 34.2736 61.0079 33.7821L58.7645 28.5902L60.2707 29.4876H46.618L48.0922 28.5902L45.8808 33.7821C45.6672 34.2949 45.4321 34.6688 45.1758 34.9039C44.9194 35.1175 44.5775 35.2243 44.1502 35.2243ZM53.4123 16.0912L48.5729 27.5647L47.7717 26.7955H59.0849L58.3478 27.5647L53.4764 16.0912H53.4123ZM72.556 35.2884C70.8894 35.2884 69.6288 34.8077 68.7742 33.8462C67.9409 32.8634 67.5243 31.4533 67.5243 29.6158V13.8157C67.5243 13.2816 67.6632 12.8756 67.9409 12.5979C68.2187 12.3201 68.614 12.1813 69.1267 12.1813C69.6395 12.1813 70.0348 12.3201 70.3125 12.5979C70.6117 12.8756 70.7612 13.2816 70.7612 13.8157V29.4235C70.7612 30.4918 70.9749 31.293 71.4022 31.8272C71.8509 32.3399 72.4919 32.5963 73.3251 32.5963C73.5174 32.5963 73.6883 32.5963 73.8379 32.5963C73.9875 32.575 74.137 32.5536 74.2866 32.5322C74.543 32.5109 74.7246 32.5857 74.8314 32.7566C74.9382 32.9061 74.9917 33.2266 74.9917 33.718C74.9917 34.1667 74.8955 34.5193 74.7032 34.7757C74.5109 35.0107 74.2011 35.1602 73.7738 35.2243C73.5815 35.2457 73.3785 35.2564 73.1649 35.2564C72.9512 35.2778 72.7482 35.2884 72.556 35.2884ZM83.6423 35.2884C82.3604 35.2884 81.2814 35.0641 80.4054 34.6154C79.5294 34.1667 78.8777 33.5044 78.4504 32.6284C78.0231 31.7524 77.8095 30.6841 77.8095 29.4235V21.86H75.8865C75.4592 21.86 75.128 21.7532 74.893 21.5395C74.658 21.3045 74.5405 20.9947 74.5405 20.6101C74.5405 20.2041 74.658 19.8943 74.893 19.6807C75.128 19.467 75.4592 19.3602 75.8865 19.3602H77.8095V16.0592C77.8095 15.525 77.9483 15.1191 78.2261 14.8413C78.5252 14.5635 78.9312 14.4247 79.4439 14.4247C79.9567 14.4247 80.352 14.5635 80.6298 14.8413C80.9075 15.1191 81.0464 15.525 81.0464 16.0592V19.3602H84.7961C85.2234 19.3602 85.5546 19.467 85.7896 19.6807C86.0246 19.8943 86.1421 20.2041 86.1421 20.6101C86.1421 20.9947 86.0246 21.3045 85.7896 21.5395C85.5546 21.7532 85.2234 21.86 84.7961 21.86H81.0464V29.1671C81.0464 30.2995 81.2814 31.1541 81.7515 31.731C82.2429 32.3079 83.0334 32.5963 84.1231 32.5963C84.5077 32.5963 84.8388 32.5643 85.1166 32.5002C85.4157 32.4147 85.6614 32.3613 85.8537 32.3399C86.0887 32.3399 86.281 32.4254 86.4306 32.5963C86.5801 32.7459 86.6549 33.045 86.6549 33.4937C86.6549 33.8142 86.5908 34.1133 86.4626 34.3911C86.3558 34.6688 86.1528 34.8504 85.8537 34.9359C85.5973 35.0214 85.2448 35.0961 84.7961 35.1602C84.3688 35.2457 83.9842 35.2884 83.6423 35.2884ZM95.3194 35.2884C93.7383 35.2884 92.3709 34.9573 91.2171 34.2949C90.0847 33.6326 89.198 32.6925 88.5571 31.4746C87.9161 30.2568 87.5956 28.8253 87.5956 27.1801C87.5956 25.9195 87.7772 24.7978 88.1404 23.815C88.5037 22.8321 89.0164 21.9882 89.6788 21.2831C90.3625 20.5567 91.1744 20.0118 92.1145 19.6486C93.076 19.264 94.1442 19.0717 95.3194 19.0717C96.8791 19.0717 98.2251 19.4029 99.3575 20.0653C100.511 20.7276 101.409 21.6677 102.05 22.8856C102.691 24.082 103.011 25.5136 103.011 27.1801C103.011 28.4193 102.829 29.541 102.466 30.5452C102.103 31.5494 101.58 32.404 100.896 33.1091C100.234 33.8142 99.4216 34.359 98.4602 34.7436C97.5201 35.1068 96.4731 35.2884 95.3194 35.2884ZM95.3194 32.7886C96.1954 32.7886 96.9645 32.575 97.6269 32.1477C98.2892 31.7203 98.802 31.09 99.1652 30.2568C99.5498 29.4235 99.7421 28.3979 99.7421 27.1801C99.7421 25.3426 99.3362 23.9538 98.5243 23.0137C97.7123 22.0736 96.6441 21.6036 95.3194 21.6036C94.422 21.6036 93.6421 21.8173 92.9798 22.2446C92.3175 22.6505 91.794 23.2701 91.4094 24.1034C91.0462 24.9367 90.8646 25.9622 90.8646 27.1801C90.8646 28.9962 91.2705 30.385 92.0824 31.3464C92.8943 32.3079 93.9733 32.7886 95.3194 32.7886ZM113.729 41.0572C112.575 41.0572 111.454 40.9397 110.364 40.7047C109.296 40.4697 108.324 40.0851 107.448 39.5509C107.127 39.38 106.913 39.1663 106.807 38.91C106.7 38.6749 106.668 38.4292 106.71 38.1728C106.775 37.9164 106.892 37.6921 107.063 37.4998C107.234 37.3075 107.437 37.1793 107.672 37.1152C107.928 37.0511 108.195 37.0939 108.473 37.2434C109.413 37.7562 110.3 38.0981 111.133 38.269C111.988 38.4613 112.778 38.5574 113.505 38.5574C115 38.5574 116.122 38.1728 116.87 37.4037C117.618 36.6559 117.992 35.5448 117.992 34.0706V30.8016H118.28C117.96 31.9767 117.287 32.9061 116.261 33.5899C115.235 34.2736 114.05 34.6154 112.704 34.6154C111.293 34.6154 110.065 34.2949 109.018 33.654C107.971 32.9916 107.159 32.0836 106.582 30.9298C106.005 29.7547 105.717 28.3873 105.717 26.8276C105.717 25.6524 105.877 24.5948 106.198 23.6547C106.54 22.7146 107.01 21.9027 107.608 21.219C108.227 20.5353 108.965 20.0118 109.819 19.6486C110.695 19.264 111.657 19.0717 112.704 19.0717C114.071 19.0717 115.257 19.4136 116.261 20.0973C117.287 20.781 117.949 21.7104 118.248 22.8856L117.928 23.4304V20.7703C117.928 20.2362 118.066 19.8302 118.344 19.5525C118.643 19.2747 119.039 19.1358 119.53 19.1358C120.043 19.1358 120.438 19.2747 120.716 19.5525C120.994 19.8302 121.132 20.2362 121.132 20.7703V33.686C121.132 36.1217 120.502 37.9592 119.242 39.1984C117.981 40.4376 116.143 41.0572 113.729 41.0572ZM113.473 32.0836C114.413 32.0836 115.214 31.8699 115.876 31.4426C116.539 31.0153 117.052 30.4063 117.415 29.6158C117.778 28.8253 117.96 27.8958 117.96 26.8276C117.96 25.2251 117.554 23.9538 116.742 23.0137C115.951 22.0736 114.862 21.6036 113.473 21.6036C112.554 21.6036 111.763 21.8173 111.101 22.2446C110.439 22.6719 109.915 23.2808 109.531 24.0714C109.168 24.8405 108.986 25.7593 108.986 26.8276C108.986 28.4514 109.392 29.7333 110.204 30.6734C111.016 31.6135 112.105 32.0836 113.473 32.0836ZM127.278 35.1923C126.765 35.1923 126.37 35.0427 126.092 34.7436C125.814 34.4231 125.675 33.9851 125.675 33.4296V20.9306C125.675 20.3751 125.814 19.9477 126.092 19.6486C126.37 19.3495 126.765 19.1999 127.278 19.1999C127.791 19.1999 128.186 19.3495 128.464 19.6486C128.763 19.9477 128.912 20.3751 128.912 20.9306V33.4296C128.912 33.9851 128.773 34.4231 128.496 34.7436C128.218 35.0427 127.812 35.1923 127.278 35.1923ZM127.278 15.8669C126.637 15.8669 126.135 15.7066 125.771 15.3861C125.43 15.0656 125.259 14.617 125.259 14.0401C125.259 13.4418 125.43 12.9932 125.771 12.694C126.135 12.3735 126.637 12.2133 127.278 12.2133C127.919 12.2133 128.41 12.3735 128.752 12.694C129.115 12.9932 129.297 13.4418 129.297 14.0401C129.297 14.617 129.115 15.0656 128.752 15.3861C128.41 15.7066 127.919 15.8669 127.278 15.8669ZM140.359 35.2884C138.757 35.2884 137.368 34.9573 136.193 34.2949C135.039 33.6112 134.141 32.6604 133.501 31.4426C132.86 30.2034 132.539 28.7505 132.539 27.0839C132.539 25.8447 132.721 24.7337 133.084 23.7509C133.447 22.7467 133.96 21.9027 134.622 21.219C135.306 20.5353 136.129 20.0118 137.09 19.6486C138.073 19.264 139.162 19.0717 140.359 19.0717C141.107 19.0717 141.887 19.1893 142.699 19.4243C143.532 19.6379 144.301 20.0012 145.006 20.5139C145.284 20.6849 145.455 20.8985 145.519 21.1549C145.604 21.3899 145.615 21.6356 145.551 21.892C145.508 22.1484 145.391 22.3728 145.198 22.5651C145.027 22.736 144.814 22.8428 144.557 22.8856C144.301 22.9069 144.023 22.8321 143.724 22.6612C143.211 22.298 142.688 22.0416 142.154 21.892C141.62 21.7211 141.107 21.6356 140.615 21.6356C139.846 21.6356 139.162 21.7638 138.564 22.0202C137.987 22.2553 137.496 22.6078 137.09 23.0778C136.684 23.5265 136.374 24.0927 136.161 24.7764C135.968 25.4601 135.872 26.24 135.872 27.116C135.872 28.868 136.278 30.2461 137.09 31.2503C137.923 32.2331 139.098 32.7245 140.615 32.7245C141.107 32.7245 141.62 32.6498 142.154 32.5002C142.688 32.3506 143.211 32.0942 143.724 31.731C144.023 31.5601 144.301 31.496 144.557 31.5387C144.814 31.5815 145.017 31.699 145.166 31.8913C145.337 32.0622 145.444 32.2759 145.487 32.5322C145.551 32.7673 145.54 33.013 145.455 33.2694C145.369 33.5258 145.188 33.7394 144.91 33.9103C144.226 34.4018 143.478 34.7543 142.666 34.968C141.876 35.1816 141.107 35.2884 140.359 35.2884Z" fill="black" />
</svg>