<?xml version="1.0" standalone="no"?>
<!DOCTYPE svg PUBLIC "-//W3C//DTD SVG 20010904//EN"
 "http://www.w3.org/TR/2001/REC-SVG-20010904/DTD/svg10.dtd">
<svg version="1.0" xmlns="http://www.w3.org/2000/svg"
 width="700.000000pt" height="700.000000pt" viewBox="0 0 700.000000 700.000000"
 preserveAspectRatio="xMidYMid meet">
<metadata>
Created by potrace 1.14, written by Peter Selinger 2001-2017
</metadata>
<g transform="translate(0.000000,700.000000) scale(0.100000,-0.100000)"
fill="#000000" stroke="none">
<path d="M2697 6124 c-1 -1 -40 -4 -87 -8 -92 -6 -209 -23 -285 -41 -532 -126
-961 -407 -1278 -837 -284 -386 -425 -885 -383 -1363 7 -85 8 -91 32 -225 84
-465 365 -927 749 -1232 271 -214 545 -339 909 -413 147 -30 212 -52 277 -93
111 -71 134 -101 321 -422 69 -118 158 -271 198 -340 79 -136 115 -183 167
-218 132 -91 318 -68 426 52 15 17 127 202 249 411 244 417 283 468 405 533
58 30 161 63 246 76 306 49 645 203 918 419 92 73 255 236 331 332 140 177
262 398 336 610 75 213 113 439 115 682 2 296 -70 605 -204 881 -281 572 -815
997 -1439 1141 -47 11 -105 22 -130 26 -25 3 -52 8 -60 10 -54 14 -269 19
-993 19 -450 1 -819 1 -820 0z m1728 -228 c44 -5 83 -10 86 -12 4 -2 24 -6 45
-10 77 -11 237 -55 332 -90 469 -176 859 -533 1068 -979 250 -535 219 -1165
-83 -1689 -70 -122 -175 -260 -282 -369 -160 -162 -306 -269 -506 -367 -117
-58 -316 -129 -405 -146 -25 -4 -47 -8 -50 -9 -3 -1 -25 -5 -50 -9 -257 -44
-442 -162 -576 -368 -24 -38 -44 -70 -44 -72 0 -2 -59 -105 -131 -228 -73
-122 -141 -239 -151 -258 -91 -160 -104 -176 -160 -193 -9 -3 -32 -1 -52 4
-29 8 -43 22 -79 82 -43 69 -162 273 -204 347 -211 373 -275 460 -408 549
-115 76 -222 115 -405 146 -73 12 -229 58 -325 96 -236 94 -425 219 -615 409
-238 236 -383 477 -476 785 -26 87 -30 100 -45 189 -5 33 -12 62 -14 65 -5 10
-18 201 -18 276 0 287 58 535 187 794 78 159 79 161 88 161 5 0 8 5 8 11 0 30
173 245 285 353 309 300 744 499 1165 532 41 4 76 7 77 8 7 6 1674 -2 1738 -8z"/>
<path d="M2849 5681 c-1 -3 -3 -52 -4 -108 l-2 -103 656 0 656 0 0 108 0 107
-653 1 c-358 1 -653 -1 -653 -5z"/>
<path d="M2659 4583 c-110 -28 -191 -100 -230 -202 -59 -158 13 -336 166 -411
42 -21 65 -25 140 -25 75 0 98 4 140 24 63 32 124 93 156 156 20 43 24 64 23
145 0 81 -4 102 -24 140 -74 138 -228 210 -371 173z"/>
<path d="M4215 4588 c-262 -38 -368 -365 -180 -553 67 -67 125 -90 230 -89
111 0 164 21 235 94 88 90 115 222 70 343 -53 140 -203 228 -355 205z"/>
<path d="M3003 3699 c-17 -11 -36 -32 -41 -47 -13 -37 -8 -226 8 -287 21 -83
79 -183 145 -249 282 -281 754 -178 896 195 27 69 33 115 34 234 0 113 -14
146 -70 164 -18 6 -212 10 -485 10 -438 0 -456 -1 -487 -20z"/>
</g>
</svg>
