<?xml version="1.0" encoding="UTF-8"?>
<svg fill="none" aria-hidden="true" className="flex-shrink-0 h-6 w-6 text-slate-400" viewBox="0 0 20 20" xmlns="http://www.w3.org/2000/svg">
<path d="m8 8h-4.7639c-1.4868 0-2.4538 1.5646-1.7889 2.8944l3.5 7c0.33879 0.6776 1.0313 1.1056 1.7889 1.1056h4.0177c0.1635 0 0.3264-0.0201 0.4851-0.0597l3.7611-0.9403m-7-10v-5c0-1.1046 0.89543-2 2-2h0.0955c0.4995 0 0.9045 0.40497 0.9045 0.90453 0 0.7143 0.2114 1.4126 0.6077 2.007l3.3923 5.0885v9m-7-10h2m5 10h2c1.1046 0 2-0.8954 2-2v-6c0-1.1046-0.8954-2-2-2h-2.5" stroke="currentColor" strokeLinecap="round" strokeLinejoin="round" strokeWidth="2"/>
</svg>
