<svg id="katman_1" data-name="katman 1" xmlns="http://www.w3.org/2000/svg" viewBox="0 0 1080 1080"><defs><style>.cls-1{fill:#84d5f7;}.cls-2{fill:#438ccb;}.cls-3{fill:#55a6d7;}.cls-4{fill:#62bfec;}.cls-5{fill:#002c3b;}</style></defs><polygon class="cls-1" points="710.32 683.84 621.84 530.59 617.15 522.47 604.78 501.03 592.4 522.47 587.71 530.59 429.62 804.41 428.05 807.12 423.93 814.26 428.06 821.41 429.62 824.11 518.1 977.36 522.78 985.49 535.16 1006.92 547.54 985.49 552.23 977.36 710.32 703.54 711.88 700.83 716.01 693.69 711.88 686.54 710.32 683.84"/><polygon class="cls-2" points="572.06 512.71 584.44 491.28 559.69 491.28 550.31 491.28 233.12 491.28 223.74 491.28 198.99 491.28 211.37 512.71 216.06 520.84 374.65 795.53 379.34 803.65 391.71 825.09 404.09 803.65 408.78 795.53 567.37 520.84 572.06 512.71"/><polygon class="cls-1" points="235.36 468.79 393.95 468.79 403.33 468.79 428.08 468.79 415.7 447.35 411.01 439.23 331.72 301.88 327.03 293.76 314.65 272.32 302.28 293.76 297.59 301.88 218.29 439.23 213.6 447.35 201.22 468.79 225.98 468.79 235.36 468.79"/><polygon class="cls-3" points="378.2 337.41 448.36 458.93 449.93 461.64 454.05 468.79 462.3 468.79 465.43 468.79 538.63 468.79 541.75 468.79 550 468.79 554.13 461.64 555.69 458.94 643.26 307.26 644.83 304.55 648.95 297.41 644.83 290.26 643.26 287.55 536.5 102.64 531.81 94.51 519.43 73.08 507.06 94.51 502.37 102.64 378.2 317.7 376.63 320.41 372.51 327.56 376.63 334.7 378.2 337.41"/><polygon class="cls-3" points="856.26 491.28 846.88 491.28 659.25 491.28 649.87 491.28 625.11 491.28 637.49 512.71 642.18 520.84 736 683.33 740.69 691.45 753.06 712.89 765.44 691.45 770.13 683.33 863.94 520.84 868.63 512.71 881.01 491.28 856.26 491.28"/><polygon class="cls-4" points="588.35 447.35 575.98 468.79 600.73 468.79 610.11 468.79 844.64 468.79 854.02 468.79 878.78 468.79 866.4 447.35 861.71 439.23 744.44 236.11 739.75 227.99 727.38 206.56 715 227.99 710.31 236.11 593.04 439.23 588.35 447.35"/><path class="cls-5" d="M727.37,140.54,661.94,253.88,519.43,7.06,367.48,270.25h0l-8,13.78-44.88-77.72L155.5,482,391.71,891.1l19.23-33.31,124.22,215.15L729,737.22l24.07,41.69L924.5,482Zm127.46,375L753.06,691.85l-109.73-190H862.79l-8,13.78ZM219.44,458.27l8-13.78h0l87.25-151.13,95.21,164.91Zm324.49,0H460.12L384.66,327.56,519.43,94.12,636.81,297.41Zm22.29,43.53L391.71,804.05,217.21,501.8Zm38.56,20.27,99.08,171.62L535.16,985.88,436.08,814.27Zm114.64-280.7,8-13.78L860.56,458.27H594.19l125.23-216.9Z"/></svg>