<svg xmlns="http://www.w3.org/2000/svg" viewBox="0 0 730.05 265.76"><defs><style>.cls-1{fill:#84d5f7;}.cls-2{fill:#438ccb;}.cls-3{fill:#55a6d7;}.cls-4{fill:#62bfec;}.cls-5{fill:#002c3b;}</style></defs><g id="Layer_2" data-name="Layer 2"><g id="Layer_1-2" data-name="Layer 1"><polygon class="cls-1" points="138.34 168.75 116.28 130.54 115.11 128.51 112.02 123.17 108.94 128.51 107.77 130.54 68.35 198.81 67.96 199.49 66.93 201.26 67.96 203.05 68.35 203.72 90.41 241.93 91.58 243.96 94.66 249.3 97.75 243.96 98.92 241.93 138.34 173.66 138.73 172.98 139.76 171.2 138.73 169.42 138.34 168.75"/><polygon class="cls-2" points="103.86 126.08 106.95 120.73 100.78 120.73 98.44 120.73 19.35 120.73 17.02 120.73 10.84 120.73 13.93 126.08 15.1 128.1 54.64 196.59 55.81 198.62 58.9 203.97 61.98 198.62 63.15 196.59 102.69 128.1 103.86 126.08"/><polygon class="cls-1" points="19.91 115.13 59.45 115.13 61.79 115.13 67.96 115.13 64.88 109.78 63.71 107.76 43.94 73.51 42.77 71.48 39.68 66.14 36.6 71.48 35.43 73.51 15.66 107.76 14.49 109.78 11.4 115.13 17.57 115.13 19.91 115.13"/><polygon class="cls-3" points="55.53 82.37 73.02 112.67 73.41 113.34 74.44 115.13 76.5 115.13 77.28 115.13 95.53 115.13 96.31 115.13 98.36 115.13 99.39 113.34 99.78 112.67 121.62 74.85 122.01 74.17 123.04 72.39 122.01 70.61 121.62 69.94 95 23.83 93.83 21.8 90.74 16.46 87.66 21.8 86.49 23.83 55.53 77.45 55.14 78.13 54.11 79.91 55.14 81.69 55.53 82.37"/><polygon class="cls-3" points="174.73 120.73 172.39 120.73 125.6 120.73 123.27 120.73 117.09 120.73 120.18 126.08 121.35 128.1 144.74 168.62 145.91 170.64 148.99 175.99 152.08 170.64 153.25 168.62 176.64 128.1 177.81 126.08 180.9 120.73 174.73 120.73"/><polygon class="cls-4" points="107.93 109.78 104.84 115.13 111.01 115.13 113.35 115.13 171.83 115.13 174.17 115.13 180.34 115.13 177.25 109.78 176.09 107.76 146.84 57.11 145.68 55.09 142.59 49.74 139.5 55.09 138.34 57.11 109.09 107.76 107.93 109.78"/><path class="cls-5" d="M142.59,33.28,126.27,61.54,90.74,0,52.85,65.62h0l-2,3.44L39.67,49.68,0,118.42l58.9,102,4.79-8.3,31,53.64L143,182.06l6,10.39,42.74-74Zm31.78,93.5-25.38,44-27.36-47.37h54.72l-2,3.44ZM15.94,112.5l2-3.43h0L39.69,71.39,63.43,112.5Zm80.91,0H76L57.14,79.91l33.6-58.2L120,72.4Zm5.56,10.86L58.9,198.72,15.39,123.36Zm9.61,5,24.71,42.79L94.66,244.06,70,201.27Zm28.59-70,2-3.43,33.2,57.51H109.38Z"/><path d="M233.22,176.33a8.19,8.19,0,0,1-5-1.41,5.44,5.44,0,0,1-2.2-3.77,10.41,10.41,0,0,1,.94-5.34l42.55-95.46a11.22,11.22,0,0,1,4-5.33,9.78,9.78,0,0,1,5.42-1.57A9.47,9.47,0,0,1,284.17,65a11.16,11.16,0,0,1,4,5.33l42.55,95.46a9.82,9.82,0,0,1,1.1,5.42,5.43,5.43,0,0,1-2,3.77,7.88,7.88,0,0,1-4.87,1.33,8.23,8.23,0,0,1-5.49-1.73,14.31,14.31,0,0,1-3.61-5.34l-11-25.43,7.38,4.4H245.31l7.23-4.4L241.7,169.26a14.59,14.59,0,0,1-3.45,5.42A7.36,7.36,0,0,1,233.22,176.33ZM278.6,82.6l-23.71,56.21L251,135h55.42l-3.61,3.77L278.91,82.6Z"/><path d="M372.33,176.64q-12.25,0-18.45-7.14t-6.2-20.65V71.45a8.08,8.08,0,0,1,2-6,7.85,7.85,0,0,1,5.81-2,8.12,8.12,0,0,1,5.88,2,7.87,7.87,0,0,1,2.12,6v76.46c0,5.24,1.08,9.13,3.22,11.7s5.26,3.85,9.34,3.85c.94,0,1.78,0,2.52-.08s1.46-.13,2.19-.24a2.69,2.69,0,0,1,2.67,1c.52.79.79,2.38.79,4.79a8,8,0,0,1-1.42,5.1,6.78,6.78,0,0,1-4.55,2.28c-.94.1-1.94.18-3,.24S373.27,176.64,372.33,176.64Z"/><path d="M426.65,176.64q-9.42,0-15.86-3.29a21,21,0,0,1-9.57-9.74q-3.15-6.44-3.14-15.7v-37h-9.42a6.76,6.76,0,0,1-4.87-1.65,6.76,6.76,0,0,1,0-9,7,7,0,0,1,4.87-1.57h9.42V82.44a7.87,7.87,0,0,1,2.12-6,8.12,8.12,0,0,1,5.88-2,7.87,7.87,0,0,1,5.81,2,8.08,8.08,0,0,1,2,6V98.61H432.3a7,7,0,0,1,4.87,1.57,6.76,6.76,0,0,1,0,9,6.77,6.77,0,0,1-4.87,1.65H413.93v35.8q0,8.33,3.54,12.56T429,163.46a20.12,20.12,0,0,0,4.95-.55,24.87,24.87,0,0,1,3.53-.71,3.68,3.68,0,0,1,2.83,1.18c.73.78,1.1,2.27,1.1,4.47a11.11,11.11,0,0,1-.87,4.4,4.47,4.47,0,0,1-3.06,2.67,36.33,36.33,0,0,1-5.1,1.17A34.16,34.16,0,0,1,426.65,176.64Z"/><path d="M483.8,176.64q-11.62,0-20-4.86A33.76,33.76,0,0,1,450.67,158q-4.71-9-4.71-21a47.32,47.32,0,0,1,2.67-16.48A36.39,36.39,0,0,1,456.24,108a32.41,32.41,0,0,1,11.94-8A42.35,42.35,0,0,1,483.8,97.2q11.46,0,19.86,4.87a33.8,33.8,0,0,1,13.11,13.74q4.71,8.86,4.71,21.11a48.22,48.22,0,0,1-2.67,16.49A35.34,35.34,0,0,1,511.19,166a32.85,32.85,0,0,1-11.93,7.93A41.94,41.94,0,0,1,483.8,176.64Zm0-12.24a20.39,20.39,0,0,0,11.3-3.14,20.82,20.82,0,0,0,7.62-9.27,36.77,36.77,0,0,0,2.74-15.07q0-13.5-6-20.41a19.76,19.76,0,0,0-15.7-6.91,21,21,0,0,0-11.46,3.07,20.22,20.22,0,0,0-7.62,9.18A36.79,36.79,0,0,0,462,136.92q0,13.35,6,20.41T483.8,164.4Z"/><path d="M573.91,204.9a76.87,76.87,0,0,1-16.4-1.72,46.4,46.4,0,0,1-14.37-5.66,6.52,6.52,0,0,1-3.14-3.06,6,6,0,0,1-.39-3.69,7,7,0,0,1,1.65-3.29,6,6,0,0,1,3.06-1.89,5.21,5.21,0,0,1,3.84.63,49.48,49.48,0,0,0,13.11,5.1,55.1,55.1,0,0,0,11.54,1.34q11,0,16.49-5.58t5.49-16.4v-16h1.42a23.32,23.32,0,0,1-9.89,13.66,30.71,30.71,0,0,1-17.43,5,33.5,33.5,0,0,1-18.06-4.79,32.11,32.11,0,0,1-11.93-13.35,44.61,44.61,0,0,1-4.24-20,46.43,46.43,0,0,1,2.44-15.55,35.43,35.43,0,0,1,6.9-11.93A30.56,30.56,0,0,1,554.84,100a35.08,35.08,0,0,1,14-2.75,30.56,30.56,0,0,1,17.5,5,22.72,22.72,0,0,1,9.66,13.65l-1.57,2.67v-13a8.23,8.23,0,0,1,13.66-6,8.08,8.08,0,0,1,2,6v63.27q0,17.91-9.26,27T573.91,204.9Zm-1.25-44a21.19,21.19,0,0,0,11.77-3.14,20.46,20.46,0,0,0,7.54-9,32.4,32.4,0,0,0,2.67-13.65q0-11.77-5.89-18.69t-16.09-6.91a20.17,20.17,0,0,0-19.24,12,31.21,31.21,0,0,0-2.74,13.59q0,11.93,6,18.84T572.66,160.94Z"/><path d="M640.32,81.5q-4.71,0-7.3-2.35a8.49,8.49,0,0,1-2.59-6.6c0-2.93.87-5.15,2.59-6.67s4.16-2.28,7.3-2.28,5.58.76,7.3,2.28,2.59,3.74,2.59,6.67a8.46,8.46,0,0,1-2.59,6.6C645.9,80.72,643.46,81.5,640.32,81.5Zm0,94.67a7.42,7.42,0,0,1-5.81-2.27,9.21,9.21,0,0,1-2-6.36V106.31a8.89,8.89,0,0,1,2-6.28,7.52,7.52,0,0,1,5.81-2.2,7.78,7.78,0,0,1,5.89,2.2,8.69,8.69,0,0,1,2.12,6.28v61.23a9.21,9.21,0,0,1-2,6.36A7.62,7.62,0,0,1,640.32,176.17Z"/><path d="M704.38,176.64q-11.77,0-20.33-4.94a33.78,33.78,0,0,1-13.27-14q-4.71-9-4.71-21.27A47.55,47.55,0,0,1,668.74,120,32.6,32.6,0,0,1,688.44,100a44.68,44.68,0,0,1,27.48-1.1,34.09,34.09,0,0,1,11.22,5.42,5.51,5.51,0,0,1,2.59,3.06,7.31,7.31,0,0,1,.16,3.69,6.28,6.28,0,0,1-1.73,3.22,5.38,5.38,0,0,1-3.21,1.57,6.71,6.71,0,0,1-4.09-1,26.41,26.41,0,0,0-7.69-3.85,26.07,26.07,0,0,0-7.54-1.18,25.59,25.59,0,0,0-10,1.81,19.73,19.73,0,0,0-7.3,5.18,21.79,21.79,0,0,0-4.47,8.4,40.1,40.1,0,0,0-1.49,11.46q0,12.87,6,20.17t17.19,7.3a27.68,27.68,0,0,0,7.54-1.1,24.9,24.9,0,0,0,7.69-3.76,6.23,6.23,0,0,1,4.09-.95,5.19,5.19,0,0,1,3.06,1.65,7,7,0,0,1,1.57,3.14,6.87,6.87,0,0,1-.24,3.69,5.87,5.87,0,0,1-2.67,3.14,33,33,0,0,1-10.91,5.18A44,44,0,0,1,704.38,176.64Z"/></g></g></svg>