<?xml version="1.0" encoding="UTF-8"?><svg xmlns="http://www.w3.org/2000/svg" viewBox="0 0 31.55 42.18"><defs><style>.d{fill:#002c3b;}.e{fill:#fff;}.f{fill:#84d5f7;}.g{fill:#438ccb;}.h{fill:#62bfec;}.i{fill:#55a6d7;}</style></defs><g id="a"/><g id="b"><g id="c"><g><g><path class="d" d="M15.6,41.18c-.36,0-.69-.19-.87-.5l-3.61-6.26c-.18,.16-.41,.25-.66,.25-.36,0-.69-.19-.87-.5L1.13,19.51c-.18-.31-.18-.69,0-1L6.83,8.64c.18-.31,.51-.5,.87-.5s.69,.19,.87,.5l.74,1.28L14.17,1.5c.18-.31,.51-.5,.87-.5s.69,.19,.87,.5l4.24,7.34,1.48-2.56c.18-.31,.51-.5,.87-.5s.69,.19,.87,.5l7.06,12.23c.18,.31,.18,.69,0,1l-6.14,10.64c-.18,.31-.51,.5-.87,.5s-.68-.19-.86-.49l-6.08,10.53c-.18,.31-.51,.5-.87,.5Zm0-6.12l4.89-8.47-2.4-4.15-4.89,8.47,2.39,4.15Zm-5.14-6.51l4.52-7.83H5.94l4.52,7.83Zm12.94-4.02l2.2-3.81h-4.4l2.2,3.81Zm2.12-7.37l-3.04-5.26-3.04,5.26h6.08Zm-10.19,0l2.75-4.76-3.05-5.28-3.67,6.36,2.13,3.68h1.85Zm-5.96,0l-1.68-2.91-1.68,2.91h3.36Z"/><path class="e" d="M15.04,2l5.1,8.84,2.34-4.06,7.06,12.23-6.14,10.64-.86-1.49-6.94,12.03-4.45-7.71-.69,1.19L2,19.01,7.7,9.14l1.61,2.78,.29-.49L15.04,2m-2.12,16.16h3l3.33-5.76-4.2-7.28-4.83,8.36,2.7,4.68m9.29-7.77h0l-4.49,7.77h9.54l-4.77-8.26-.29,.49M4.29,18.16h6.82l-3.41-5.91-3.13,5.41-.28,.49m23.05,1.56h-7.86l3.93,6.81,3.65-6.31h0l.29-.49M10.46,30.55l6.25-10.83H4.21l6.25,10.83m5.14,6.51l6.04-10.47-3.55-6.15-6.04,10.47,3.55,6.15m6.6-26.67h0M15.04,0c-.71,0-1.37,.38-1.73,1l-4,6.94c-.37-.5-.97-.8-1.6-.8h0c-.71,0-1.37,.38-1.73,1L.27,18.01c-.36,.62-.36,1.38,0,2l8.46,14.66c.36,.62,1.02,1,1.73,1,.07,0,.14,0,.22-.01l3.19,5.53c.36,.62,1.02,1,1.73,1s1.37-.38,1.73-1l5.54-9.6c.17,.05,.35,.07,.53,.07,.71,0,1.37-.38,1.73-1l6.14-10.64c.36-.62,.36-1.38,0-2l-7.06-12.23c-.36-.62-1.02-1-1.73-1s-1.37,.38-1.73,1l-.61,1.06-3.37-5.84c-.36-.62-1.02-1-1.73-1h0Zm-2.52,13.48l2.52-4.36,1.89,3.28-2.17,3.76h-.69l-1.55-2.68h0Zm8.66,2.68l1.31-2.26,1.31,2.26h-2.61Zm1.76,5.56h.93l-.47,.81-.47-.81h0Zm-15.26,0h5.57l-2.79,4.83-2.79-4.83h0Zm6.69,9.19l3.73-6.47,1.24,2.15-3.73,6.47-1.24-2.15h0Z"/></g><polygon class="g" points="16.71 19.72 4.21 19.72 10.46 30.55 16.71 19.72"/><polygon class="f" points="11.11 18.16 7.7 12.26 4.29 18.16 11.11 18.16"/><polygon class="i" points="12.91 18.16 15.91 18.16 19.24 12.4 15.04 5.12 10.21 13.48 12.91 18.16"/><polygon class="i" points="19.47 19.72 23.41 26.53 27.34 19.72 19.47 19.72"/><polygon class="h" points="17.71 18.16 27.26 18.16 22.49 9.9 17.71 18.16"/><polygon class="f" points="18.09 20.45 12.05 30.92 15.6 37.06 21.64 26.6 18.09 20.45"/></g></g></g></svg>