<svg width="36" height="36" viewBox="0 0 36 36" fill="none" xmlns="http://www.w3.org/2000/svg">
    <circle cx="18" cy="18" r="18" fill="#00A884"/>
    <path fill-rule="evenodd" clip-rule="evenodd" d="M17.746 13.2749C17.746 15.087 16.3153 16.5498 14.5298 16.5498C12.7442 16.5498 11.3028 15.087 11.3028 13.2749C11.3028 11.4628 12.7442 10 14.5298 10C16.3153 10 17.746 11.4628 17.746 13.2749ZM25.9085 13.7601C25.9085 15.4246 24.5945 16.7682 22.9545 16.7682C21.3144 16.7682 19.9906 15.4246 19.9906 13.7601C19.9906 12.0956 21.3144 10.752 22.9545 10.752C24.5945 10.752 25.9085 12.0956 25.9085 13.7601ZM14.5295 18.7331C12.0232 18.7331 7 20.0104 7 22.5538V24.5552C7 25.1557 7.48403 25.283 8.07564 25.283H20.9833C21.5749 25.283 22.0589 25.1557 22.0589 24.5552V22.5538C22.0589 20.0104 17.0357 18.7331 14.5295 18.7331ZM21.9101 18.975C22.0635 18.9781 22.1956 18.9806 22.283 18.9806C24.7893 18.9806 29.9245 20.0104 29.9245 22.554V24.1913C29.9245 24.7918 29.4406 25.283 28.8489 25.283H23.2771C23.3955 24.9446 23.4708 24.5734 23.4708 24.1913L23.4292 22.4083C23.4292 20.7847 22.4759 20.1646 21.4615 19.5045C21.2254 19.351 20.9862 19.1953 20.7547 19.0243C20.7515 19.0209 20.7483 19.0166 20.7447 19.0119C20.7365 19.0012 20.7267 18.9883 20.7118 18.9806C20.9828 18.957 21.5163 18.9674 21.9101 18.975Z" fill="white"/>
</svg>
